<?xml version="1.0" standalone="no"?>
<!DOCTYPE svg PUBLIC "-//W3C//DTD SVG 20010904//EN"
 "http://www.w3.org/TR/2001/REC-SVG-20010904/DTD/svg10.dtd">
<svg version="1.0" xmlns="http://www.w3.org/2000/svg"
 width="700.000000pt" height="700.000000pt" viewBox="0 0 700.000000 700.000000"
 preserveAspectRatio="xMidYMid meet">
<metadata>
Created by potrace 1.14, written by Peter Selinger 2001-2017
</metadata>
<g transform="translate(0.000000,700.000000) scale(0.100000,-0.100000)"
fill="#000000" stroke="none">
<path d="M1070 6754 c-102 -58 -189 -109 -194 -114 -4 -4 4 -28 18 -52 27 -47
32 -68 17 -68 -5 0 -49 -23 -98 -51 -48 -28 -116 -67 -150 -85 l-62 -35 -20
38 c-11 21 -24 44 -30 52 -7 11 -44 -6 -182 -85 -96 -54 -178 -101 -184 -103
-5 -2 -39 -22 -74 -43 -35 -22 -75 -44 -88 -49 l-23 -9 0 -717 0 -718 72 -40
c135 -75 183 -102 418 -237 129 -74 255 -146 280 -160 25 -14 100 -57 168 -96
68 -40 126 -72 130 -72 4 0 18 -9 32 -20 l25 -19 1 -574 0 -574 -235 -133
c-130 -74 -263 -150 -297 -169 -33 -20 -180 -103 -327 -186 l-266 -150 -1
-715 0 -715 97 -55 c53 -30 119 -68 146 -83 27 -15 95 -54 151 -86 55 -32 122
-70 148 -85 26 -14 97 -55 158 -91 61 -36 113 -65 116 -65 2 0 22 -11 44 -25
22 -14 64 -38 92 -54 29 -16 108 -60 174 -99 l122 -70 38 22 c72 42 599 343
644 368 25 14 101 58 168 97 68 39 125 71 127 71 2 0 33 18 69 40 36 22 71 40
78 40 7 0 33 -12 58 -26 25 -14 63 -36 85 -48 22 -13 121 -69 220 -126 99 -56
200 -114 225 -128 25 -14 62 -36 82 -49 21 -12 39 -23 41 -23 2 0 71 -39 153
-86 234 -135 255 -146 274 -141 9 2 176 96 371 207 195 112 372 213 394 225
22 13 110 63 196 112 l156 90 164 -95 c90 -51 189 -108 219 -125 30 -17 88
-50 128 -74 41 -24 75 -43 77 -43 1 0 85 -48 186 -106 183 -106 232 -134 312
-178 l42 -23 235 134 c129 74 237 137 239 139 2 2 -8 26 -23 53 l-27 50 43 24
c24 14 87 50 140 80 l97 55 27 -46 c15 -26 28 -48 29 -50 2 -2 291 159 335
188 8 5 45 26 83 47 l67 37 0 716 0 715 -103 58 c-103 58 -112 63 -225 129
-35 21 -66 38 -68 38 -2 0 -33 18 -69 40 -36 22 -67 40 -70 40 -3 0 -50 27
-106 60 -55 33 -102 60 -103 60 -2 0 -88 49 -192 109 l-189 109 -2 553 c-1
305 0 563 2 575 3 15 145 101 564 340 l560 319 1 716 0 715 -37 21 c-21 11
-157 89 -303 173 -146 84 -285 164 -310 178 -25 14 -62 36 -82 49 -21 12 -40
23 -42 23 -3 0 -71 38 -151 85 -81 47 -148 85 -149 85 -2 0 -40 22 -85 49
l-83 49 -31 -18 c-18 -10 -126 -72 -242 -138 -115 -65 -354 -201 -529 -301
-182 -104 -327 -181 -336 -178 -9 2 -174 95 -367 205 -192 110 -365 209 -384
220 -18 10 -106 61 -194 112 -88 51 -164 93 -170 93 -11 0 -232 -123 -277
-154 -15 -11 -29 -19 -32 -19 -3 0 -186 -104 -408 -230 -420 -241 -434 -247
-469 -204 -6 8 -15 14 -19 14 -4 0 -57 28 -117 63 -60 35 -116 67 -124 70 -8
4 -27 15 -44 25 -16 10 -50 30 -75 44 -25 14 -148 85 -275 158 -126 73 -246
142 -265 153 -19 11 -55 30 -79 43 -24 13 -49 28 -55 34 -8 6 -71 -25 -196
-96z"/>
</g>
</svg>
